<?xml version="1.0" standalone="no"?>
<!DOCTYPE svg PUBLIC "-//W3C//DTD SVG 20010904//EN"
 "http://www.w3.org/TR/2001/REC-SVG-20010904/DTD/svg10.dtd">
<svg version="1.0" xmlns="http://www.w3.org/2000/svg"
 width="400.000000pt" height="400.000000pt" viewBox="0 0 400.000000 400.000000"
 preserveAspectRatio="xMidYMid meet">
<metadata>
Created by potrace 1.11, written by Peter Selinger 2001-2013
</metadata>
<g transform="translate(0.000000,400.000000) scale(0.100000,-0.100000)"
fill="#000000" stroke="none">
<path d="M1995 3634 c-11 -8 -26 -11 -35 -8 -8 4 -32 8 -52 9 -31 1 -38 -2
-43 -22 -3 -13 -15 -25 -29 -29 -59 -14 -117 -116 -112 -195 2 -21 -1 -39 -5
-39 -5 0 -9 -13 -9 -30 0 -36 1 -36 50 -8 l38 22 64 -21 c80 -27 135 -37 140
-24 4 13 70 -9 95 -31 10 -9 21 -16 24 -15 4 1 28 -12 55 -29 57 -35 119 -62
153 -66 19 -2 32 -18 56 -67 18 -35 31 -71 29 -80 -12 -62 -16 -71 -32 -71
-15 0 -15 -2 -2 -10 8 -5 10 -10 4 -10 -7 0 -14 -9 -17 -21 -6 -22 19 -59 41
-59 7 0 11 -4 8 -8 -3 -5 4 -19 16 -32 20 -21 25 -51 17 -107 -3 -21 -7 -22
-94 -19 -62 3 -104 10 -135 23 -25 11 -80 28 -122 38 -84 20 -101 35 -39 35
62 0 99 -11 125 -37 14 -14 31 -23 38 -20 7 2 22 0 33 -6 22 -11 65 -19 65
-11 0 7 -44 68 -55 76 -17 13 -200 52 -235 50 -90 -4 -103 -7 -113 -29 -6 -13
-14 -23 -19 -23 -4 0 -8 -4 -8 -10 0 -5 15 -10 33 -11 28 0 27 -2 -17 -14 -66
-17 -140 -6 -191 29 -35 24 -47 27 -92 23 -51 -5 -58 -2 -54 26 0 4 -32 7 -73
7 -83 0 -103 -12 -87 -51 5 -13 15 -60 21 -103 11 -81 37 -139 67 -151 13 -4
12 0 -5 18 -49 52 -67 178 -33 233 18 30 22 31 58 24 69 -15 84 -22 94 -46 11
-32 33 -32 25 0 -9 38 24 44 51 9 18 -22 23 -41 23 -85 0 -31 -4 -68 -10 -82
-5 -14 -7 -26 -5 -26 8 0 45 79 53 113 7 32 9 33 38 25 31 -8 31 -8 37 -91 4
-63 12 -93 31 -127 14 -25 26 -52 26 -61 0 -24 -47 -52 -75 -45 -18 5 -24 1
-27 -17 -7 -40 2 -52 55 -76 28 -13 58 -31 66 -39 13 -13 16 -12 22 4 13 33
10 43 -17 50 -17 4 -31 18 -40 40 -17 42 -17 44 1 44 8 0 23 9 34 21 18 19 24
20 71 10 28 -6 63 -11 78 -10 16 1 3 6 -32 14 -103 22 -128 56 -140 187 -7 75
1 102 36 111 20 6 20 4 -6 -16 -22 -18 -26 -27 -21 -49 4 -16 12 -25 20 -22 7
3 15 -2 18 -10 8 -21 19 -20 43 2 10 10 33 18 49 18 24 -1 31 4 33 22 2 12 7
22 12 22 16 0 80 -42 75 -49 -2 -5 5 -17 15 -29 11 -12 20 -29 20 -38 0 -40
-26 -97 -57 -124 -23 -21 -29 -30 -17 -30 26 0 71 57 90 113 19 58 52 114 72
122 14 5 133 -19 170 -35 18 -8 22 -17 22 -52 0 -24 -9 -59 -19 -78 -11 -19
-24 -45 -30 -57 -5 -11 -24 -29 -40 -39 -17 -10 -31 -22 -31 -27 0 -4 -13 -19
-29 -32 -24 -21 -40 -55 -45 -99 -1 -5 -7 -11 -15 -14 -8 -3 -11 0 -7 7 4 6 2
11 -3 11 -6 0 -11 -4 -11 -10 0 -17 -22 -11 -26 8 -4 12 -15 17 -42 16 -76 -2
-88 -13 -94 -94 -2 -28 -7 -35 -24 -35 -34 0 -56 -24 -49 -56 5 -23 2 -29 -23
-42 -20 -9 -35 -11 -46 -5 -9 5 -22 6 -28 2 -17 -11 -59 -11 -65 -1 -3 5 -8 5
-12 1 -3 -5 -20 -16 -37 -25 -30 -16 -34 -16 -77 6 -25 13 -48 21 -51 18 -3
-3 -11 7 -17 23 -18 46 -59 203 -59 227 0 12 -5 29 -10 37 -8 11 -9 7 -5 -15
6 -29 40 -184 57 -256 4 -20 24 -57 43 -82 29 -38 41 -46 77 -50 97 -10 174
-29 185 -43 6 -9 16 -13 22 -9 6 3 11 3 11 -2 0 -10 111 -10 128 0 8 6 12 2
12 -10 0 -14 2 -15 9 -4 5 8 16 11 24 8 9 -3 27 5 42 19 14 13 30 24 35 24 5
0 10 10 12 23 2 15 9 22 24 21 16 -1 20 3 17 17 -4 13 0 19 10 19 9 0 18 12
22 30 3 16 22 43 41 59 45 40 73 95 85 170 5 33 20 91 34 129 13 37 29 90 35
117 5 28 17 66 26 86 15 33 22 38 107 64 51 15 94 26 96 24 2 -2 16 46 32 106
16 61 35 135 43 165 34 128 44 224 25 236 -6 3 -8 16 -5 29 4 15 1 25 -10 29
-14 5 -14 8 0 28 22 31 20 41 -5 33 -18 -6 -20 -4 -14 14 4 13 2 21 -5 21 -7
0 -10 6 -8 13 8 19 -27 72 -45 69 -9 -1 -19 9 -26 28 -6 18 -16 30 -24 28 -8
-2 -24 8 -35 22 -12 14 -21 19 -22 12 0 -15 -30 0 -70 35 -14 12 -43 29 -65
39 -22 9 -51 21 -65 27 -14 6 -56 19 -95 29 -38 10 -86 23 -105 29 -109 32
-184 37 -215 13z m117 -940 c29 -15 51 -41 27 -32 -8 3 -43 14 -77 23 -34 10
-59 22 -56 27 7 11 69 0 106 -18z m-167 -64 c3 -5 1 -10 -4 -10 -6 0 -11 5
-11 10 0 6 2 10 4 10 3 0 8 -4 11 -10z"/>
<path d="M1614 2899 c-4 -7 -3 -14 4 -17 6 -2 29 -16 51 -33 l41 -29 0 23 c0
13 -8 31 -17 40 -26 22 -69 31 -79 16z"/>
<path d="M2701 2495 c-1 -22 -4 -50 -7 -62 -4 -14 -2 -23 4 -23 16 0 25 65 14
97 -10 27 -10 27 -11 -12z"/>
<path d="M2583 2501 c-3 -13 -11 -20 -19 -17 -10 4 -14 -2 -14 -18 0 -34 -10
-56 -25 -56 -22 0 -40 -30 -29 -47 7 -11 5 -27 -7 -52 -16 -32 -36 -181 -25
-181 2 0 10 33 16 73 12 69 33 125 48 129 4 0 19 2 33 3 42 3 89 44 89 77 0
33 -21 78 -45 98 -14 11 -17 10 -22 -9z m42 -73 c9 -35 5 -35 -26 -2 -20 21
-20 24 -5 18 16 -6 18 -4 12 12 -5 12 -4 16 3 9 5 -5 13 -22 16 -37z"/>
<path d="M1528 2488 c15 -15 118 -23 126 -10 4 7 -5 9 -27 5 -18 -3 -51 0 -72
6 -28 8 -35 7 -27 -1z"/>
<path d="M1760 2425 c-7 -9 -11 -17 -9 -18 35 -23 61 -29 72 -18 9 10 7 16
-12 32 -28 23 -35 24 -51 4z"/>
<path d="M1687 2357 c-3 -8 -1 -20 4 -28 11 -19 32 2 23 24 -7 20 -20 22 -27
4z"/>
<path d="M1597 2302 c-23 -25 -21 -30 6 -25 13 3 29 13 35 24 10 16 9 19 -6
19 -11 0 -26 -8 -35 -18z"/>
<path d="M1648 2243 c7 -3 16 -2 19 1 4 3 -2 6 -13 5 -11 0 -14 -3 -6 -6z"/>
<path d="M1950 2242 c0 -13 46 -53 52 -47 11 11 -17 55 -34 55 -10 0 -18 -4
-18 -8z"/>
<path d="M1830 2215 c68 -18 88 -19 73 -4 -5 5 -37 12 -69 15 l-59 4 55 -15z"/>
<path d="M1733 2125 c1 -21 4 -30 9 -22 5 8 8 7 8 -6 0 -23 38 -20 54 5 13 22
-17 58 -50 58 -19 0 -22 -5 -21 -35z"/>
<path d="M2366 1837 c-15 -34 -50 -105 -76 -157 -42 -82 -52 -95 -76 -98 -58
-7 -221 36 -348 92 -32 14 -62 26 -67 26 -4 0 3 -24 16 -54 13 -30 24 -62 24
-73 -1 -10 2 -29 5 -43 5 -22 5 -22 -5 3 -6 15 -17 27 -25 27 -19 0 -77 126
-71 151 4 14 -10 27 -57 53 -35 20 -69 42 -76 51 -16 19 -39 19 -60 0 -15 -13
-73 -39 -265 -117 -80 -32 -172 -57 -259 -68 -71 -10 -154 -31 -237 -62 -51
-18 -115 -100 -184 -233 -37 -71 -75 -141 -85 -155 -52 -76 -118 -235 -127
-307 -5 -49 -4 -53 43 -115 158 -206 391 -399 634 -527 705 -370 1563 -287
2181 211 l86 69 -18 87 c-10 48 -19 101 -19 117 0 17 -7 55 -15 85 -8 30 -20
82 -26 115 -29 170 -93 293 -184 354 -64 43 -191 102 -280 131 -75 24 -247
106 -299 142 -41 29 -53 44 -76 94 -23 52 -40 64 -40 30 0 -25 -7 -30 -42 -27
-10 1 -21 -11 -29 -34 -8 -22 -19 -35 -31 -35 -22 0 -22 2 2 45 11 19 29 50
39 69 11 19 26 56 34 83 8 26 22 66 31 87 27 65 12 51 -18 -17z m-482 -394 c9
-25 14 -49 11 -51 -2 -3 -7 4 -11 14 -3 10 -12 36 -20 57 -8 21 -10 36 -5 33
5 -3 16 -27 25 -53z m194 -150 c-47 -76 -92 -151 -101 -168 -27 -50 -19 -18 9
38 33 66 167 277 173 272 2 -3 -35 -66 -81 -142z"/>
</g>
</svg>
