<?xml version="1.0" standalone="no"?>
<!DOCTYPE svg PUBLIC "-//W3C//DTD SVG 20010904//EN"
 "http://www.w3.org/TR/2001/REC-SVG-20010904/DTD/svg10.dtd">
<svg version="1.0" xmlns="http://www.w3.org/2000/svg"
 width="1280.000000pt" height="1280.000000pt" viewBox="0 0 1280.000000 1280.000000"
 preserveAspectRatio="xMidYMid meet">
<metadata>
Created by potrace 1.11, written by Peter Selinger 2001-2013
</metadata>
<g transform="translate(0.000000,1280.000000) scale(0.100000,-0.100000)"
fill="#000000" stroke="none">
<path d="M1610 8373 c5 -16 36 -116 70 -223 62 -197 86 -270 203 -640 36 -113
93 -293 127 -400 34 -107 66 -208 71 -225 6 -16 21 -64 34 -105 13 -41 42
-133 65 -205 23 -71 54 -170 70 -220 15 -49 60 -191 100 -315 39 -124 84 -265
100 -315 15 -49 72 -227 125 -395 53 -168 144 -453 202 -635 58 -181 117 -370
133 -420 15 -49 41 -130 57 -180 l29 -90 786 -3 786 -2 37 117 c20 65 59 186
86 268 51 160 132 417 134 425 1 3 11 34 22 70 41 126 135 422 188 590 13 41
69 219 125 395 56 176 114 361 130 410 52 168 81 260 87 275 3 8 7 20 8 25 2
6 30 97 64 202 34 106 62 195 62 198 -1 3 8 29 18 57 11 29 45 134 76 233 31
99 72 227 90 285 19 58 63 197 99 310 35 113 87 277 115 365 28 88 51 164 51
168 0 4 -291 6 -647 5 l-646 -3 -19 -65 c-10 -36 -59 -209 -108 -385 -49 -176
-130 -466 -181 -645 -50 -179 -95 -341 -100 -360 -5 -19 -11 -42 -13 -50 -3
-8 -18 -62 -35 -120 -16 -58 -91 -325 -166 -595 -75 -269 -140 -503 -146 -520
-5 -16 -22 -77 -38 -135 -63 -227 -60 -220 -81 -220 -11 0 -21 7 -21 15 -1 8
-2 18 -3 23 -8 29 -29 102 -37 127 -5 17 -25 89 -45 160 -32 116 -168 605
-194 695 -5 19 -44 157 -86 305 -41 149 -98 350 -125 447 -27 97 -52 185 -54
195 -2 10 -30 113 -63 228 -34 116 -70 244 -81 285 -11 41 -38 140 -61 220
-22 80 -55 195 -71 255 -17 61 -34 118 -36 128 -5 16 -45 17 -654 17 l-648 0
9 -27z"/>
<path d="M6323 6200 l-1 -2200 562 0 562 0 0 1278 c0 1214 1 1277 18 1277 14
0 39 -58 121 -280 58 -154 113 -302 124 -330 11 -27 79 -210 151 -405 73 -195
142 -382 155 -415 13 -33 40 -105 59 -160 20 -55 43 -115 51 -133 8 -18 15
-37 15 -43 0 -6 6 -25 14 -42 8 -18 51 -131 96 -252 45 -121 85 -229 90 -240
5 -11 23 -60 41 -110 18 -49 36 -94 41 -100 14 -15 666 -14 679 1 5 6 25 54
43 105 19 52 125 335 236 629 111 294 206 546 210 560 5 14 36 97 70 185 34
88 63 165 64 170 2 6 6 17 9 25 4 8 74 195 156 414 136 361 164 426 181 410 3
-3 5 -576 5 -1272 l0 -1267 563 -3 562 -2 0 2200 0 2200 -716 -2 -716 -3 -59
-150 c-33 -82 -63 -159 -68 -170 -5 -11 -114 -285 -241 -610 -128 -324 -270
-684 -315 -800 -46 -115 -122 -309 -170 -430 -48 -121 -92 -233 -100 -250 -7
-16 -16 -40 -20 -52 -4 -17 -14 -23 -33 -23 -25 0 -30 9 -79 133 -29 72 -127
320 -218 550 -91 230 -165 420 -165 423 0 3 -8 24 -19 47 -10 23 -30 71 -44
107 -60 156 -286 728 -432 1095 l-51 130 -716 3 -715 2 0 -2200z"/>
</g>
</svg>
