<svg xmlns="http://www.w3.org/2000/svg" width="28" height="28" viewBox="0 0 28 28">
  <g fill="none" fill-rule="evenodd">
    <polygon points="0 0 28 0 28 28 0 28"/>
    <path fill="#141A27" fill-rule="nonzero" d="M18.6585672,5.10534275 C17.7643394,3.53477013 16.5513766,2.2913456 15.0193594,1.37478866 C13.4871142,0.458184971 11.8143593,0 9.99990879,0 C8.18568634,0 6.51238411,0.458325218 4.98045815,1.37478866 C3.44830417,2.29129885 2.23538694,3.53477013 1.34115919,5.10534275 C0.447068266,6.67586863 0,8.39089504 0,10.2503752 C0,12.4840328 0.635737186,14.4925949 1.90753079,16.2765758 C3.17918759,18.060697 4.82197991,19.2952392 6.83577093,19.9803429 C7.07018192,20.0249412 7.2437099,19.9935728 7.35653728,19.8870323 C7.46941028,19.7803515 7.52577837,19.6467434 7.52577837,19.486769 C7.52577837,19.4600755 7.52354371,19.2199269 7.51921121,18.7660428 C7.5147419,18.3121587 7.51264406,17.9161964 7.51264406,17.5783429 L7.21315438,17.6314495 C7.0222052,17.6673058 6.78131827,17.6824992 6.49049359,17.6781983 C6.19980572,17.6740376 5.89803578,17.6428094 5.58559421,17.5847474 C5.27301583,17.5271997 4.98228236,17.3937319 4.71316578,17.1846245 C4.44418601,16.9755171 4.25323683,16.7018029 4.14036384,16.3639026 L4.01016085,16.056763 C3.92337406,15.8522837 3.78674073,15.6251313 3.60007844,15.3761472 C3.41341615,15.1269294 3.22465602,14.9579792 3.03370684,14.8690163 L2.94254195,14.8021187 C2.88179575,14.7576606 2.82542766,14.7040397 2.77330086,14.6418171 C2.72121967,14.5795944 2.68222718,14.517325 2.65618658,14.4549621 C2.63010038,14.3925525 2.65171727,14.3413626 2.72126527,14.3012054 C2.79081328,14.2610481 2.91650135,14.2415539 3.09887674,14.2415539 L3.35919151,14.2814306 C3.5328107,14.3170999 3.74756582,14.4236405 4.00373051,14.6017066 C4.25975838,14.7796326 4.47022661,15.0109456 4.6351808,15.2955523 C4.8349318,15.6604734 5.0755907,15.9385353 5.35784159,16.1298781 C5.63986446,16.3212209 5.9242132,16.4167287 6.21061417,16.4167287 C6.49701514,16.4167287 6.74437801,16.3944763 6.95279401,16.3502052 C7.16098197,16.3057003 7.35630926,16.2388028 7.53868465,16.1498866 C7.61680645,15.5534654 7.82950933,15.0952804 8.17661089,14.7750044 C7.68188514,14.7217108 7.23709713,14.6414431 6.84201885,14.5347156 C6.4471686,14.4278478 6.03913843,14.2544098 5.61820197,14.013934 C5.19703748,13.7737854 4.84765566,13.4755748 4.56996529,13.1198165 C4.29222932,12.7638711 4.06429428,12.2965701 3.88647941,11.7183343 C3.70857333,11.1398646 3.61959749,10.4725723 3.61959749,9.71627022 C3.61959749,8.63941165 3.96254897,7.72304171 4.64831511,6.96664615 C4.32707173,6.15705047 4.35739922,5.2494693 4.7393888,4.24399615 C4.99112978,4.16382196 5.36445436,4.22398766 5.85918011,4.42411927 C6.35399707,4.62434437 6.71628518,4.79586571 6.94640927,4.93807555 C7.17653336,5.08023865 7.36091539,5.2007103 7.49982898,5.29841529 C8.30726993,5.06714899 9.14052346,4.95149246 9.99981758,4.95149246 C10.8591117,4.95149246 11.6925476,5.06714899 12.5000342,5.29841529 L12.9948056,4.97823277 C13.3331509,4.76459076 13.7326985,4.5688068 14.1924906,4.39083412 C14.6525564,4.21295495 15.0043553,4.1639622 15.2475225,4.24413639 C15.6379946,5.24965629 15.6727915,6.15719071 15.3514569,6.9667864 C16.0371774,7.72318196 16.3802657,8.63978564 16.3802657,9.71641047 C16.3802657,10.4727125 16.2909706,11.1421086 16.1133382,11.7250193 C15.9354777,12.3080236 15.7055816,12.7748571 15.4235588,13.1265015 C15.1412167,13.4780993 14.7896002,13.7739724 14.3686637,14.0140742 C13.9476361,14.2543631 13.5394691,14.4278011 13.1446188,14.5346688 C12.7495861,14.6415366 12.3047981,14.721851 11.8100724,14.7752382 C12.2612907,15.1755014 12.4869455,15.8073114 12.4869455,16.6703877 L12.4869455,19.4863951 C12.4869455,19.6463694 12.5412157,19.7799308 12.6498475,19.8866583 C12.7583423,19.9931988 12.9296813,20.0245672 13.1640923,19.9799221 C15.1781569,19.294912 16.8209492,18.060323 18.0925604,16.2762018 C19.3640348,14.4922209 20,12.4836588 20,10.2500012 C19.9995439,8.39075479 19.5522477,6.67586863 18.6585672,5.10534275 Z" transform="translate(4 4)"/>
  </g>
</svg>
