<svg xmlns="http://www.w3.org/2000/svg" width="28" height="28" viewBox="0 0 28 28">
  <g fill="none" fill-rule="evenodd">
    <polygon points="0 0 28 0 28 28 0 28"/>
    <path fill="#141A27" fill-rule="nonzero" d="M4.18993548,5.79077419 C4.35030968,5.79077419 4.48025806,5.92078065 4.48025806,6.08109677 L4.48025806,6.08109677 L4.48025806,17.6898194 C4.48025806,17.8501935 4.35030968,17.9801419 4.18993548,17.9801419 L4.18993548,17.9801419 L0.576406452,17.9801419 C0.416032258,17.9801419 0.286083871,17.8501935 0.286083871,17.6898194 L0.286083871,17.6898194 L0.286083871,6.08109677 C0.286083871,5.92078065 0.416032258,5.79077419 0.576406452,5.79077419 L0.576406452,5.79077419 Z M13.3812,5.50225161 C17.4512323,5.50225161 18,8.44432258 18,11.3222903 L18,11.3222903 L18,17.6898774 C18,17.8502516 17.8700516,17.9802 17.7096774,17.9802 L17.7096774,17.9802 L14.1027097,17.9802 C13.9423355,17.9802 13.8123871,17.8502516 13.8123871,17.6898774 L13.8123871,17.6898774 L13.8123871,12.0457742 C13.8123871,10.4654903 13.6956194,9.25670323 12.2262387,9.25670323 C10.8770516,9.25670323 10.3513355,10.010729 10.3513355,11.9461935 L10.3513355,11.9461935 L10.3513355,17.6898194 C10.3513355,17.8501935 10.2213871,17.9802 10.0610129,17.9802 L10.0610129,17.9802 L6.45538065,17.9802 C6.29500645,17.9802 6.16505806,17.8501935 6.16505806,17.6898194 L6.16505806,17.6898194 L6.16505806,6.08109677 C6.16505806,5.92078065 6.29500645,5.79077419 6.45538065,5.79077419 L6.45538065,5.79077419 L9.91596774,5.79077419 C10.0763419,5.79077419 10.2062903,5.92078065 10.2062903,6.08109677 L10.2062903,6.08109677 L10.2062903,6.83506452 C10.8570194,6.12615484 11.9298774,5.50225161 13.3812,5.50225161 Z M2.38447742,0.0198 C3.69824516,0.0198 4.76709677,1.08830323 4.76703871,2.40166452 C4.76703871,3.71554839 3.69824516,4.78451613 2.38447742,4.78451613 C1.06966452,4.78451613 1.08135723e-12,3.71560645 1.08135723e-12,2.40166452 C1.08135723e-12,1.08830323 1.06966452,0.0198 2.38447742,0.0198 Z" transform="translate(5 3)"/>
  </g>
</svg>
