<svg xmlns="http://www.w3.org/2000/svg" width="28" height="28" viewBox="0 0 28 28">
  <g fill="none" fill-rule="evenodd">
    <polygon points="0 0 28 0 28 28 0 28"/>
    <path fill="#141A27" fill-rule="nonzero" d="M10.0163287,0.000911016906 C11.5512901,0.00427543579 11.8958882,0.0178563495 12.7035362,0.0561951579 C13.6578947,0.0982730175 14.3105811,0.252604175 14.8824013,0.473684211 C15.4788926,0.698190807 16.0227522,1.05263158 16.4719024,1.50877193 C16.9316064,1.95792214 17.2824835,2.49821821 17.5105537,3.10169958 C17.7316338,3.67023025 17.8859649,4.32634319 17.9280428,5.28070175 C17.9617051,6.04703947 17.9707182,6.39565789 17.972977,7.75301316 L17.9731921,9.77300398 C17.9706974,11.5037079 17.9580811,11.841239 17.9210526,12.6842105 C17.8789748,13.6385691 17.7245066,14.2912555 17.5035636,14.8632127 C17.0368695,16.0701754 16.0825109,17.024534 14.8754112,17.4912281 C14.3070175,17.7123081 13.6509046,17.8666393 12.696546,17.9087171 C11.7386239,17.950932 11.4333881,17.9613487 8.99479165,17.9613487 L8.71222126,17.9612973 C6.53072148,17.9604645 6.21251098,17.9492434 5.29303726,17.9087171 C4.33854168,17.8666393 3.68599232,17.7123081 3.11403509,17.4912281 C2.51754386,17.2667215 1.97368421,16.9122807 1.524534,16.4561404 C1.06839365,16.0069901 0.714089895,15.4666941 0.486019719,14.8632127 C0.264939684,14.294682 0.110471509,13.6385691 0.0683936491,12.6842105 C0.033048247,11.8795559 0.0199462783,11.5354368 0.0166584907,10.000552 L0.0166730871,7.96434568 C0.020037506,6.42938421 0.0336184196,6.08478618 0.0719572281,5.27713818 C0.114035088,4.32277961 0.268366246,3.67023025 0.489446281,3.09827302 C0.714089895,2.50178179 1.06839365,1.95792214 1.524534,1.50877193 C1.97368421,1.049068 2.51398028,0.698190807 3.11759867,0.470120632 C3.68599232,0.249177614 4.34210526,0.0947094386 5.29646382,0.0526315789 C6.10111842,0.0172861768 6.44523751,0.00418420817 7.98012235,0.000896420487 Z M9.78262526,1.6320711 L8.22895881,1.6320711 C6.53105437,1.63456579 6.21087719,1.64718201 5.37719298,1.68421053 C4.50356358,1.72286182 4.02631579,1.87020284 3.71052632,1.99300986 C3.32099782,2.1367873 2.97012063,2.36485747 2.67900218,2.66310309 C2.37719298,2.950932 2.14912281,3.30523575 2.00520835,3.69476425 C1.88240133,4.01055372 1.73506032,4.48423793 1.69654604,5.36143091 C1.65433116,6.30523575 1.64391446,6.59292765 1.64391446,8.98944628 L1.64396582,9.26706732 C1.64479867,11.4097671 1.65601975,11.708125 1.69654604,12.6175987 C1.73506032,13.4912281 1.88240133,13.9684759 2.00520835,14.2842653 C2.14912281,14.6736568 2.37719298,15.024534 2.6754386,15.3157895 C2.96313049,15.6140351 3.31757126,15.8421053 3.70696274,15.9860197 C4.02275221,16.1088267 4.49643642,16.2561678 5.3736294,16.294682 C6.31757126,16.3368969 6.60526316,16.3473136 9.00178179,16.3473136 L9.27940219,16.3472622 C11.4220919,16.3464294 11.7203235,16.3352083 12.6297972,16.294682 C13.5035636,16.2561678 13.9806744,16.1088267 14.2964638,15.9860197 C15.0789474,15.6842105 15.6999726,15.0631853 16.0017818,14.2807018 C16.1245888,13.9649123 16.2719298,13.4912281 16.3105811,12.6140351 C16.3492928,11.7424561 16.3613224,11.4351439 16.3629993,9.5254117 L16.3629993,8.45341858 C16.3613224,6.54322238 16.3492928,6.23300986 16.3105811,5.36143091 C16.2719298,4.48766449 16.1245888,4.01055372 16.0017818,3.69476425 C15.8578673,3.30523575 15.6297972,2.95435856 15.3315515,2.66310309 C15.0438596,2.36485747 14.6894189,2.1367873 14.3000274,1.99300986 C13.9842379,1.87020284 13.5105537,1.72286182 12.6333607,1.68421053 C11.8026919,1.64718201 11.4829827,1.63456579 9.78262526,1.6320711 Z M8.99821821,4.36842105 C11.5456414,4.36842105 13.6122533,6.43503291 13.6122533,8.98245614 C13.6122533,11.5298794 11.5456414,13.5964912 8.99821821,13.5964912 C6.450932,13.5964912 4.38418312,11.5298794 4.38418312,8.98245614 C4.38418312,6.43503291 6.450932,4.36842105 8.99821821,4.36842105 Z M8.99821821,5.98944628 C7.34566884,5.98944628 6.00520835,7.32976975 6.00520835,8.98245614 C6.00520835,10.6351425 7.34566884,11.975466 8.99821821,11.975466 C10.6509046,11.975466 11.9912281,10.6351425 11.9912281,8.98245614 C11.9912281,7.32976975 10.6509046,5.98944628 8.99821821,5.98944628 Z M13.794682,3.10882674 C14.3896656,3.10882674 14.8719846,3.59100877 14.8719846,4.18599232 C14.8719846,4.78083881 14.3896656,5.26315789 13.794682,5.26315789 C13.1998355,5.26315789 12.7175165,4.78083881 12.7175165,4.18599232 C12.7175165,3.59100877 13.1998355,3.10882674 13.794682,3.10882674 Z" transform="translate(5 5)"/>
  </g>
</svg>
