<svg xmlns="http://www.w3.org/2000/svg" width="28" height="28" viewBox="0 0 28 28">
  <g fill="none" fill-rule="evenodd">
    <polygon points="0 0 28 0 28 28 0 28"/>
    <path fill="#141A27" fill-rule="nonzero" d="M20,1.94986425 C19.25625,2.28054299 18.46375,2.49972851 17.6375,2.60615385 C18.4875,2.09176471 19.13625,1.28343891 19.44125,0.309140271 C18.64875,0.788054299 17.77375,1.12633484 16.84125,1.31511312 C16.08875,0.502986425 15.01625,0 13.84625,0 C11.57625,0 9.74875,1.86751131 9.74875,4.15692308 C9.74875,4.48633484 9.77625,4.80307692 9.84375,5.10461538 C6.435,4.9361086 3.41875,3.280181 1.3925,0.757647059 C1.03875,1.37972851 0.83125,2.09176471 0.83125,2.85828054 C0.83125,4.29755656 1.5625,5.57339367 2.6525,6.3120362 C1.99375,6.29936652 1.3475,6.10552036 0.8,5.800181 C0.8,5.81285068 0.8,5.82932127 0.8,5.84579186 C0.8,7.86533937 2.22125,9.54280543 4.085,9.92923077 C3.75125,10.0217195 3.3875,10.0660633 3.01,10.0660633 C2.7475,10.0660633 2.4825,10.0508597 2.23375,9.99511312 C2.765,11.640905 4.2725,12.8508597 6.065,12.8901357 C4.67,13.9961991 2.89875,14.6626244 0.98125,14.6626244 C0.645,14.6626244 0.3225,14.6474208 0,14.6056109 C1.81625,15.7927602 3.96875,16.4705882 6.29,16.4705882 C13.835,16.4705882 17.96,10.1357466 17.96,4.64470588 C17.96,4.46099548 17.95375,4.28361991 17.945,4.10751131 C18.75875,3.52217195 19.4425,2.79113122 20,1.94986425 Z" transform="translate(4 6)"/>
  </g>
</svg>
